#!OML:ASF H:\Dans Jumps\Project 1\Capture day 1\Session 1\subject.ASF
:FULLY-SPECIFIED
:DEGREES
625
root 0.329947 17.638 -6.67597 10.8454 -1.33586 -1.32077
lowerback 4.51218 0.446931 -0.379653
upperback 5.81641 0.563821 0.846002
thorax 3.45205 0.246538 1.07612
lowerneck -13.2675 0.171711 -0.910446
upperneck 32.4843 0.0785226 1.25253
head 13.0674 0.0853275 0.658431
rclavicle -2.65874e-015 -1.49089e-016
rhumerus -36.4443 -12.1044 -78.6279
rradius 31.7447
rwrist 25.5897
rhand -18.542 -25.562
rfingers 7.12502
rthumb 7.74726 -55.4001
lclavicle -2.65874e-015 -1.49089e-016
lhumerus -36.9955 -2.09819 88.1406
lradius 28.1049
lwrist 18.4949
lhand -27.4753 -3.60939
lfingers 7.12502
lthumb -0.879178 26.3685
rfemur -25.5766 -1.41278 19.1358
rtibia 27.8203
rfoot -12.2638 1.14682
rtoes 14.5381
lfemur -23.5205 7.42951 -18.8128
ltibia 25.2689
lfoot -10.6322 5.2874
ltoes 5.85142
626
root 0.326147 17.6384 -6.67952 10.822 -1.31254 -1.31109
lowerback 4.50498 0.446099 -0.382303
upperback 5.8137 0.562744 0.845324
thorax 3.45325 0.24594 1.07696
lowerneck -13.2556 0.168204 -0.922694
upperneck 32.4961 0.0687342 1.27683
head 13.0699 0.0827633 0.668669
rclavicle 2.75814e-015 1.22253e-014
rhumerus -36.3444 -11.9879 -78.7908
rradius 31.9043
rwrist 25.3896
rhand -18.6135 -25.5173
rfingers 7.12502
rthumb 7.67819 -55.3579
lclavicle 2.75814e-015 1.22253e-014
lhumerus -36.9249 -2.36252 88.3646
lradius 28.7824
lwrist 18.9708
lhand -27.6085 -3.96865
lfingers 7.12502
lthumb -1.00778 26.0087
rfemur -25.5566 -1.43486 19.1417
rtibia 27.8128
rfoot -12.253 1.15098
rtoes 14.5622
lfemur -23.4954 7.41233 -18.8049
ltibia 25.2444
lfoot -10.6181 5.27575
ltoes 5.88508
627
root 0.322325 17.6389 -6.68324 10.8016 -1.28859 -1.30722
lowerback 4.49767 0.444627 -0.379446
upperback 5.81008 0.56088 0.846444
thorax 3.45363 0.245125 1.07658
lowerneck -13.2304 0.164147 -0.944093
upperneck 32.4934 0.0586594 1.30718
head 13.0634 0.0797413 0.68265
rclavicle 1.66482e-015 -1.13804e-014
rhumerus -36.2404 -11.8639 -78.9544
rradius 32.0664
rwrist 25.187
rhand -18.6799 -25.4733
rfingers 7.12502
rthumb 7.61416 -55.3163
lclavicle 1.66482e-015 -1.13804e-014
lhumerus -36.8515 -2.62536 88.5849
lradius 29.4632
lwrist 19.4503
lhand -27.7587 -4.38224
lfingers 7.12502
lthumb -1.15288 25.5944
rfemur -25.5393 -1.45491 19.1541
rtibia 27.8028
rfoot -12.2402 1.15392
rtoes 14.5873
lfemur -23.4771 7.39626 -18.7908
ltibia 25.2247
lfoot -10.6044 5.26512
ltoes 5.91805
628
root 0.318483 17.6392 -6.68717 10.784 -1.26541 -1.3099
lowerback 4.48982 0.443001 -0.371108
upperback 5.80602 0.558863 0.849544
thorax 3.45387 0.244401 1.07518
lowerneck -13.1953 0.161083 -0.969101
upperneck 32.4799 0.0512321 1.3369
head 13.0501 0.0773452 0.697272
rclavicle 5.59082e-015 1.49089e-015
rhumerus -36.1341 -11.7267 -79.1214
rradius 32.2379
rwrist 24.9779
rhand -18.7287 -25.454
rfingers 7.12502
rthumb 7.56703 -55.2986
lclavicle 5.59082e-015 1.49089e-015
lhumerus -36.7732 -2.88158 88.7997
lradius 30.1555
lwrist 19.93
lhand -27.8951 -4.75717
lfingers 7.12502
lthumb -1.28455 25.2187
rfemur -25.526 -1.47073 19.1732
rtibia 27.7921
rfoot -12.225 1.15606
rtoes 14.6201
lfemur -23.4657 7.38315 -18.7701
ltibia 25.2096
lfoot -10.591 5.25436
ltoes 5.95448
629
root 0.314687 17.6394 -6.69121 10.7683 -1.24501 -1.31382
lowerback 4.48088 0.442334 -0.361714
upperback 5.80142 0.558144 0.852383
thorax 3.45414 0.24437 1.0729
lowerneck -13.1664 0.159616 -0.984728
upperneck 32.4707 0.047368 1.35514
head 13.04 0.0761591 0.706368
rclavicle -1.73937e-016 1.88845e-015
rhumerus -36.0269 -11.5881 -79.2868
rradius 32.4134
rwrist 24.7778
rhand -18.7679 -25.4422
rfingers 7.12502
rthumb 7.52917 -55.2882
lclavicle -1.73937e-016 1.88845e-015
lhumerus -36.6953 -3.13361 89.0095
lradius 30.8675
lwrist 20.4137
lhand -28.007 -5.05141
lfingers 7.12502
lthumb -1.39271 24.9238
rfemur -25.5169 -1.48411 19.193
rtibia 27.7824
rfoot -12.2077 1.15999
rtoes 14.6611
lfemur -23.4577 7.3715 -18.7485
ltibia 25.1962
lfoot -10.5778 5.24511
ltoes 5.99693
630
root 0.310978 17.6395 -6.69525 10.7525 -1.22607 -1.31534
lowerback 4.47325 0.442268 -0.354765
upperback 5.79499 0.558197 0.854749
thorax 3.45173 0.244658 1.07146
lowerneck -13.1418 0.159297 -0.990666
upperneck 32.4702 0.0465058 1.36127
head 13.0345 0.075885 0.709585
rclavicle 2.73329e-015 -1.49089e-016
rhumerus -35.9286 -11.442 -79.4494
rradius 32.5996
rwrist 24.5814
rhand -18.799 -25.4344
rfingers 7.12502
rthumb 7.49912 -55.2815
lclavicle 2.73329e-015 -1.49089e-016
lhumerus -36.621 -3.382 89.2163
lradius 31.5967
lwrist 20.8939
lhand -28.1085 -5.26565
lfingers 7.12502
lthumb -1.49075 24.7089
rfemur -25.5084 -1.49717 19.2094
rtibia 27.7737
rfoot -12.1899 1.1649
rtoes 14.7048
lfemur -23.4488 7.36034 -18.7301
ltibia 25.1819
lfoot -10.5629 5.23642
ltoes 6.03953
631
root 0.307483 17.6398 -6.69913 10.7365 -1.20952 -1.31268
lowerback 4.46534 0.443862 -0.350967
upperback 5.7868 0.560448 0.855451
thorax 3.44758 0.245973 1.07003
lowerneck -13.1295 0.158656 -0.984015
upperneck 32.4852 0.0455611 1.3558
head 13.0382 0.075609 0.706261
rclavicle 5.49143e-015 -4.17448e-015
rhumerus -35.843 -11.2935 -79.6079
rradius 32.7981
rwrist 24.3944
rhand -18.825 -25.426
rfingers 7.12502
rthumb 7.47408 -55.274
lclavicle 5.49143e-015 -4.17448e-015
lhumerus -36.5496 -3.62514 89.4182
lradius 32.3401
lwrist 21.3592
lhand -28.1675 -5.3284
lfingers 7.12502
lthumb -1.54767 24.6457
rfemur -25.5001 -1.51372 19.2205
rtibia 27.7659
rfoot -12.173 1.1764
rtoes 14.7591
lfemur -23.437 7.34824 -18.7173
ltibia 25.1638
lfoot -10.5462 5.23097
ltoes 6.07294
632
root 0.304192 17.6401 -6.70279 10.7203 -1.19413 -1.30674
lowerback 4.45513 0.446237 -0.349422
upperback 5.77789 0.563733 0.854743
thorax 3.44394 0.24775 1.06842
lowerneck -13.125 0.156178 -0.972054
upperneck 32.5119 0.0414839 1.34725
head 13.0486 0.0742104 0.700479
rclavicle 4.72114e-016 6.16232e-015
rhumerus -35.7691 -11.138 -79.7642
rradius 33.0077
rwrist 24.218
rhand -18.8509 -25.413
rfingers 7.12502
rthumb 7.44902 -55.2619
lclavicle 4.72114e-016 6.16232e-015
lhumerus -36.4797 -3.86148 89.6133
lradius 33.0832
lwrist 21.7982
lhand -28.2151 -5.32848
lfingers 7.12502
lthumb -1.59368 24.6453
rfemur -25.4902 -1.53393 19.2275
rtibia 27.7573
rfoot -12.1571 1.19207
rtoes 14.8115
lfemur -23.4203 7.33575 -18.7092
ltibia 25.1402
lfoot -10.5273 5.22679
ltoes 6.09168
633
root 0.301081 17.6407 -6.70626 10.7034 -1.1785 -1.29869
lowerback 4.4428 0.448781 -0.349341
upperback 5.76984 0.567229 0.853309
thorax 3.44238 0.249581 1.06689
lowerneck -13.1213 0.15186 -0.960674
upperneck 32.5408 0.0343046 1.34044
head 13.0602 0.0716146 0.695039
rclavicle -1.21756e-015 3.27995e-015
rhumerus -35.6975 -10.9826 -79.9167
rradius 33.2144
rwrist 24.0565
rhand -18.8796 -25.3886
rfingers 7.12502
rthumb 7.42141 -55.2384
lclavicle -1.21756e-015 3.27995e-015
lhumerus -36.4066 -4.08764 89.8006
lradius 33.8048
lwrist 22.1945
lhand -28.2573 -5.37123
lfingers 7.12502
lthumb -1.63439 24.6023
rfemur -25.477 -1.55544 19.2317
rtibia 27.7468
rfoot -12.1416 1.20723
rtoes 14.8575
lfemur -23.3984 7.32116 -18.704
ltibia 25.1105
lfoot -10.5054 5.22451
ltoes 6.09694
634
root 0.298116 17.6414 -6.70952 10.6848 -1.16269 -1.29123
lowerback 4.42782 0.449976 -0.349218
upperback 5.76407 0.568896 0.852881
thorax 3.44472 0.250454 1.06645
lowerneck -13.112 0.147503 -0.95807
upperneck 32.5651 0.0275413 1.33939
head 13.0687 0.0688664 0.693375
rclavicle -4.09993e-015 -4.07509e-015
rhumerus -35.6239 -10.8232 -80.0665
rradius 33.4174
rwrist 23.9032
rhand -18.9095 -25.3596
rfingers 7.12502
rthumb 7.39255 -55.2104
lclavicle -4.09993e-015 -4.07509e-015
lhumerus -36.326 -4.29658 89.9783
lradius 34.485
lwrist 22.5365
lhand -28.3195 -5.59933
lfingers 7.12502
lthumb -1.69448 24.3737
rfemur -25.459 -1.57656 19.2359
rtibia 27.7331
rfoot -12.1254 1.22095
rtoes 14.8926
lfemur -23.3714 7.30509 -18.6979
ltibia 25.0757
lfoot -10.4831 5.22055
ltoes 6.10591
635
root 0.295197 17.6422 -6.71269 10.6649 -1.14454 -1.28217
lowerback 4.41449 0.448733 -0.35344
upperback 5.75903 0.567204 0.853974
thorax 3.44691 0.249449 1.07005
lowerneck -13.0923 0.143309 -0.968106
upperneck 32.5802 0.02161 1.34688
head 13.0709 0.0660304 0.697256
rclavicle -8.72168e-015 1.78906e-015
rhumerus -35.5429 -10.6665 -80.2101
rradius 33.6053
rwrist 23.7617
rhand -18.9496 -25.3078
rfingers 7.12502
rthumb 7.35385 -55.16
lclavicle -8.72168e-015 1.78906e-015
lhumerus -36.2368 -4.48782 90.1474
lradius 35.1212
lwrist 22.8295
lhand -28.4019 -5.98297
lfingers 7.12502
lthumb -1.77404 23.9894
rfemur -25.4367 -1.59633 19.2382
rtibia 27.7161
rfoot -12.1083 1.22948
rtoes 14.9197
lfemur -23.3411 7.28482 -18.6926
ltibia 25.0372
lfoot -10.4582 5.21561
ltoes 6.12271
636
root 0.292295 17.6431 -6.71592 10.6451 -1.12297 -1.27467
lowerback 4.40195 0.444929 -0.357734
upperback 5.75518 0.562053 0.857143
thorax 3.44996 0.246662 1.07587
lowerneck -13.059 0.139301 -0.993562
upperneck 32.5825 0.0164515 1.36548
head 13.0647 0.0630732 0.708119
rclavicle -1.01877e-015 5.46658e-015
rhumerus -35.4535 -10.5126 -80.3484
rradius 33.7807
rwrist 23.6242
rhand -18.9955 -25.2461
rfingers 7.12502
rthumb 7.30945 -55.0999
lclavicle -1.01877e-015 5.46658e-015
lhumerus -36.1382 -4.66455 90.3082
lradius 35.7257
lwrist 23.0796
lhand -28.4887 -6.43823
lfingers 7.12502
lthumb -1.85795 23.5334
rfemur -25.4125 -1.61347 19.2421
rtibia 27.6957
rfoot -12.0905 1.23073
rtoes 14.9333
lfemur -23.3112 7.26048 -18.6846
ltibia 24.9966
lfoot -10.4304 5.20815
ltoes 6.14982
637
root 0.289378 17.6439 -6.71921 10.6252 -1.09827 -1.26888
lowerback 4.39192 0.439081 -0.362318
upperback 5.75131 0.554131 0.862349
thorax 3.45163 0.242443 1.08397
lowerneck -13.0216 0.136667 -1.02329
upperneck 32.5812 0.0138726 1.38573
head 13.056 0.0609201 0.720701
rclavicle -3.75206e-015 -4.77083e-015
rhumerus -35.3589 -10.3641 -80.4803
rradius 33.9438
rwrist 23.4882
rhand -19.0455 -25.1894
rfingers 7.12502
rthumb 7.26119 -55.0449
lclavicle -3.75206e-015 -4.77083e-015
lhumerus -36.0363 -4.83073 90.4621
lradius 36.3104
lwrist 23.2964
lhand -28.5713 -6.91463
lfingers 7.12502
lthumb -1.93769 23.0563
rfemur -25.3867 -1.62586 19.2474
rtibia 27.6727
rfoot -12.072 1.22414
rtoes 14.9406
lfemur -23.2806 7.23147 -18.6732
ltibia 24.9515
lfoot -10.4003 5.19934
ltoes 6.19434
